PathFileType	4	(X/Y/Z)	C:/Users/beibeiliu/ov580/test_trc/User3\sequence.25_training_dense_left.trc
DataRate	CameraRate	NumFrames	NumMarkers	Units	OrigDataRate	OrigDataStartFrame	OrigNumFrames
120	120	11	19	mm	120	121	145
Frame#	Time	ThumbCMC			ThumbMCP			ThumbIP			ThumbTip			IndexMCP			IndexPIP			IndexTip			MiddleMCP			MiddlePIP			MiddleTip			RingMCP			RingPIP			RingTip			PinkyMCP			PinkyPIP			PinkyTip			BackHand1			BackHand2			BackHand3	
		X0	Y0	Z0	X1	Y1	Z1	X2	Y2	Z2	X3	Y3	Z3	X4	Y4	Z4	X5	Y5	Z5	X6	Y6	Z6	X7	Y7	Z7	X8	Y8	Z8	X9	Y9	Z9	X10	Y10	Z10	X11	Y11	Z11	X12	Y12	Z12	X13	Y13	Z13	X14	Y14	Z14	X15	Y15	Z15	X16	Y16	Z16	X17	Y17	Z17	X18	Y18	Z18	
120	1	-60.3905	-20.636	27.7915	-47.6829	-24.8571	3.79935	-35.459	-28.6425	-24.1573	-26.8664	-33.5658	-41.5187	-93.3705	-1.53472	-43.7784	-93.6331	0.884389	-65.6137	-94.251	8.34259	-89.166	-121.1	-1.98484	-38.5214	-124.747	3.33226	-68.3876	-132.097	8.11092	-94.9107	-134.708	-12.4001	-28.4672	-144.141	-11.7562	-52.7249	-156.873	-16.4058	-81.8514	-149.31	-25.688	-15.0803	-160.36	-29.4924	-36.7782	-168.379	-37.9514	-53.3157	-126.654	-6.85113	21.044	-121.47	-8.459	48.534	-89.8465	-0.532485	22.1078	
121	1.00833	-57.7065	-21.138	26.2642	-43.8637	-29.3333	5.4792	-30.4429	-34.6382	-21.454	-22.2456	-43.0462	-45.2748	-94.3363	0.727465	-40.75	-92.8923	6.31274	-65.0996	-95.3913	9.54648	-93.9764	-121.719	4.49344	-38.7092	-123.192	10.9653	-62.6329	-135.076	13.4698	-92.5266	-140.323	-11.2722	-25.9197	-151.44	-13.632	-52.9997	-156.099	-31.9987	-77.1989	-151.978	-26.4783	-8.3958	-164.009	-35.3429	-31.6618	-161.68	-57.8318	-47.0126	-124.719	-6.52185	18.5809	-119.625	-7.70079	51.6097	-90.2936	0.828527	25.9706	
122	1.01667	-62.3483	-22.4361	29.4664	-45.8421	-29.3156	2.47074	-31.427	-37.5019	-25.4332	-31.6776	-47.516	-47.2489	-93.6447	6.80301	-38.6802	-91.6409	11.7779	-62.7178	-89.4178	9.77049	-89.7157	-121.789	8.92068	-32.8038	-125.734	16.453	-61.9471	-131.211	10.686	-96.6496	-141.059	-8.56616	-26.9092	-149.912	-17.4996	-54.6396	-145.419	-45.3407	-66.6268	-154.214	-28.7219	-14.0549	-156.541	-44.4403	-33.0922	-138.053	-67.5138	-35.4215	-128.553	-6.66634	20.1808	-120.563	-6.93052	52.8981	-89.5451	0.456306	27.9245	
123	1.025	-59.0892	-20.0759	27.5562	-46.5183	-27.9587	-0.705466	-41.2319	-36.2466	-27.5803	-43.5008	-48.6439	-48.0971	-91.3434	11.0419	-32.3736	-93.7856	16.8719	-64.8631	-89.3553	2.64923	-91.7702	-120.154	12.6315	-30.196	-128.608	17.2183	-60.9369	-126.432	1.95048	-93.1176	-135.336	-8.26219	-24.3795	-142.72	-23.5066	-53.3997	-127.243	-53.6453	-51.9723	-147.254	-31.8803	-12.6304	-141.474	-53.0266	-31.5673	-124.119	-71.5884	-18.2739	-127.646	-7.20796	27.0253	-119.311	-8.75658	52.1576	-93.8933	0.786128	34.2169	
124	1.03333	-62.3536	-19.6107	28.8103	-52.072	-28.0973	1.15062	-44.4821	-35.2236	-29.5495	-53.8868	-46.7351	-48.3471	-96.5275	13.8981	-29.842	-97.8683	18.0232	-60.5595	-92.9909	-0.631144	-85.8904	-119.206	15.1531	-28.098	-127.922	17.0266	-62.0336	-123.333	-4.03809	-89.9347	-136.979	-8.82727	-25.0455	-136.757	-24.9494	-51.9278	-116.068	-52.9877	-39.5646	-146.225	-35.5025	-13.2346	-131.669	-57.5332	-25.5741	-112.705	-66.1622	-4.02313	-126.398	-3.38814	24.8483	-121.97	-9.98615	57.6281	-93.2424	0.55416	36.511	
125	1.04167	-62.4154	-18.495	29.1072	-48.5566	-28.971	3.38326	-42.6701	-37.0177	-25.6607	-49.7159	-46.7551	-48.1031	-94.8903	14.6727	-29.486	-94.1544	19.1241	-61.5342	-92.3807	-0.112151	-87.2713	-121.695	16.441	-32.6383	-127.772	16.0298	-63.1646	-125.224	-6.35127	-92.0177	-137.925	-10.6641	-28.2205	-130.956	-32.9112	-52.8351	-116.335	-57.5906	-35.6075	-143.756	-36.957	-14.4219	-127.451	-59.393	-23.815	-111.118	-65.1975	0.465668	-130.572	-4.33304	25.1061	-123.591	-8.90123	53.8626	-94.5967	2.24624	35.27	
126	1.05	-61.1845	-20.709	27.367	-48.9515	-30.9471	4.38983	-36.0988	-39.318	-26.7344	-36.8823	-49.6703	-46.8503	-92.8536	13.1403	-38.0581	-90.4296	14.7522	-65.5231	-91.2873	0.0604136	-94.1156	-121.47	10.2001	-31.8062	-122.821	15.5061	-63.5521	-123.063	-1.33152	-95.8217	-137.719	-14.5136	-35.2848	-133.168	-35.4494	-54.0522	-117.285	-61.0319	-43.4328	-144.953	-39.6852	-17.2829	-128.506	-59.8693	-26.5599	-110.793	-66.6815	-0.686331	-129.801	-2.86787	20.3335	-122.181	-11.9916	54.1405	-97.3905	2.74811	30.6411	
127	1.05833	-57.1346	-22.7064	28.5818	-39.5457	-35.8196	5.84076	-32.2388	-44.6617	-21.1272	-25.9163	-54.9613	-46.4979	-86.3337	8.7238	-39.4576	-80.6842	10.5017	-65.4017	-81.2875	1.54775	-95.5456	-110.638	11.6777	-39.3599	-115.666	11.3906	-69.0648	-118.088	-5.6431	-100.432	-129.831	-11.3901	-35.5331	-131.601	-31.7051	-55.9169	-113.667	-62.0779	-48.9357	-142.344	-34.9822	-19.4679	-132.319	-60.1278	-28.1573	-111.288	-67.6292	-5.90431	-121.356	-1.99852	23.0704	-118.856	-5.97514	48.9724	-92.0675	2.20303	28.7973	
128	1.06667	-48.7038	-27.5393	35.5588	-32.0987	-41.7405	12.399	-23.8613	-51.4406	-15.7448	-21.82	-62.1143	-36.2247	-65.248	8.85673	-31.4169	-58.2784	9.67449	-62.776	-53.887	-2.41456	-85.2459	-90.5162	15.5855	-37.8211	-89.7117	14.3092	-68.7157	-95.1644	-10.6982	-93.7849	-111.644	0.533593	-35.6243	-114.329	-15.9334	-57.1311	-106.532	-51.4282	-51.6368	-127.327	-16.4943	-18.5764	-126.157	-42.8024	-34.3578	-107.411	-58.9116	-13.7236	-107.106	5.24107	21.8909	-107.344	0.203422	53.4174	-73.6234	2.97168	36.4778	
129	1.075	-39.2512	-30.4819	43.5342	-25.6688	-45.3553	19.6801	-17.1185	-54.1085	-10.7144	-21.4273	-61.0481	-28.7601	-37.1849	8.40126	-21.5014	-30.2941	5.9396	-56.4468	-31.721	-11.5084	-75.4535	-64.362	21.186	-29.6756	-60.0586	15.294	-63.5156	-69.0702	-13.8288	-83.0737	-85.7549	14.3759	-30.2767	-90.2103	0.442574	-55.6069	-92.2068	-33.3059	-53.3641	-108.796	6.27558	-17.1496	-108.493	-12.2315	-40.1232	-101.046	-41.2474	-28.9303	-86.1568	15.8346	27.2368	-89.2347	9.7412	56.2255	-55.0792	4.1907	41.0428	
130	1.08333	-33.1489	-30.1216	47.7665	-18.3708	-46.6032	23.3685	-13.8375	-56.4232	-4.66392	-19.0318	-60.2864	-27.8838	-17.7466	5.73786	-15.1891	-13.3831	1.02614	-49.3674	-24.2731	-23.0855	-67.1556	-36.5308	22.53	-25.0241	-35.8149	15.8462	-56.8599	-50.025	-15.0517	-71.8291	-62.7005	25.7004	-20.5916	-62.0484	12.3758	-53.4623	-73.7793	-19.0546	-55.6107	-83.8444	23.6569	-13.6394	-86.4432	16.1934	-38.652	-90.5625	-13.969	-42.2916	-67.6167	26.3348	28.2118	-76.5632	17.4408	57.7505	-42.5271	6.07078	49.7195	
